<?xml version="1.0" encoding="UTF-8" standalone="no"?>
<!-- Created with Inkscape (http://www.inkscape.org/) -->

<svg
   width="33.099182mm"
   height="27.776857mm"
   viewBox="0 0 33.099182 27.776857"
   version="1.1"
   id="svg1"
   inkscape:version="1.4.2 (ebf0e94, 2025-05-08)"
   sodipodi:docname="hackteria_logo_round.svg"
   xmlns:inkscape="http://www.inkscape.org/namespaces/inkscape"
   xmlns:sodipodi="http://sodipodi.sourceforge.net/DTD/sodipodi-0.dtd"
   xmlns:xlink="http://www.w3.org/1999/xlink"
   xmlns="http://www.w3.org/2000/svg"
   xmlns:svg="http://www.w3.org/2000/svg">
  <sodipodi:namedview
     id="namedview1"
     pagecolor="#ffffff"
     bordercolor="#666666"
     borderopacity="1.0"
     inkscape:showpageshadow="2"
     inkscape:pageopacity="0.0"
     inkscape:pagecheckerboard="0"
     inkscape:deskcolor="#d1d1d1"
     inkscape:document-units="mm"
     inkscape:zoom="0.74475309"
     inkscape:cx="187.3104"
     inkscape:cy="276.60174"
     inkscape:window-width="1863"
     inkscape:window-height="1016"
     inkscape:window-x="0"
     inkscape:window-y="0"
     inkscape:window-maximized="1"
     inkscape:current-layer="layer1" />
  <defs
     id="defs1">
    <path
       style="fill:none;stroke:none"
       d="m 3728.4277,256.20406 c 0,230.04589 -186.4891,416.5351 -416.5351,416.5351 -230.046,0 -416.535,-186.48921 -416.535,-416.5351 0,-230.04596 186.489,-416.53506 416.535,-416.53506 230.046,0 416.5351,186.4891 416.5351,416.53506 z"
       id="path4127-3"
       inkscape:connector-curvature="0" />
    <rect
       y="0"
       x="0"
       height="1728"
       width="2592"
       id="rect1" />
  </defs>
  <g
     inkscape:label="Layer 1"
     inkscape:groupmode="layer"
     id="layer1"
     transform="translate(-55.297918,-75.406254)">
    <g
       id="g2"
       transform="matrix(0.89253738,0,0,0.89253738,18.1437,14.24327)"
       inkscape:export-filename="main_logos_long.png"
       inkscape:export-xdpi="443.63"
       inkscape:export-ydpi="443.63"
       style="fill:#6dd300;fill-opacity:1;stroke:#008000">
      <g
         id="g3856"
         transform="matrix(0.093302,0,0,0.093302,76.416172,40.883617)"
         style="fill:#6dd300;fill-opacity:1;stroke:#008000;stroke-width:2.26862;stroke-miterlimit:4;stroke-dasharray:none;stroke-opacity:1">
        <g
           transform="matrix(1.8337418,0,0,1.8337418,-458.51679,171.42744)"
           style="fill:#6dd300;fill-opacity:1;stroke:#008000;stroke-width:1.23715;stroke-miterlimit:4;stroke-dasharray:none;stroke-opacity:1"
           id="g5477">
          <defs
             id="defs5479">
            <rect
               y="0"
               x="0"
               height="1728"
               width="2592"
               id="rect2" />
          </defs>
          <clipPath
             id="clipPath5483">
            <rect
               y="0"
               x="0"
               height="1728"
               width="2592"
               id="rect5485" />
          </clipPath>
          <path
             inkscape:connector-curvature="0"
             style="fill:#6dd300;fill-opacity:1;stroke:#008000;stroke-width:1.23715;stroke-miterlimit:4;stroke-dasharray:none;stroke-opacity:1"
             id="path5487"
             d="m 189.986,156.619 c 3.824,2.694 9.349,1.729 13.344,0.764 0.103,2.701 -4.018,2.327 -6.361,2.096 -3.459,-0.341 -6.985,-0.643 -9.962,-0.916 0.661,2.384 3.082,3.834 2.967,6.629 -1.783,-1.424 -1.676,-3.85 -4.222,-4.87 0.133,2.062 1.31,6.605 -1.185,7.735 0.833,-2.278 0.702,-5.256 -0.74,-6.897 -1.388,2.013 -1.461,4.904 -0.783,6.429 -0.419,0.47 -1.122,0.405 -1.641,0.687 3.18,1.522 5.67,4.984 3.152,8.354 -0.074,-0.727 0.157,-1.614 -1.039,-1.272 0.269,-0.639 0.912,-0.572 0.971,-1.608 -0.054,-1.471 -2.321,-0.688 -3.065,-1.656 0.114,-0.359 0.641,0.063 0.787,-0.235 -2.279,-1.481 -6.538,-1.234 -8.271,0.556 -1.652,-1.939 -2.012,-4.395 -1.109,-7.248 1.083,0.666 1.335,-0.234 2.16,-0.052 -0.05,0.854 -0.741,1.042 -0.468,1.524 1.018,0.874 2.688,0.972 4.186,0.333 -0.964,-1.746 1.348,-3.958 2.76,-5.108 0.418,-1.771 -0.898,-2.86 -2.379,-3.113 -0.149,-2.412 0.866,-5.056 3.044,-5.258 -0.084,-0.441 0.366,-1.167 -0.318,-1.289 1.247,-0.534 3.491,-1.603 4.604,-0.254 -1.134,-1.404 -0.484,-3.753 -2.916,-4.469 0.139,-0.31 0.588,-0.038 0.938,0.051 0.621,-2.673 -3.644,-1.743 -3.552,-3.95 -0.526,0.038 -0.915,0.335 -1.657,-0.033 -0.152,-0.748 0.479,-1.787 0.668,-2.177 1.086,0.397 0.694,1.576 1.492,2.126 3.996,1.137 5.759,4.939 7.035,8.116 0.214,-3.028 -1.71,-4.925 -2.766,-7.281 -0.652,-0.314 -0.973,-0.002 -1.289,0.319 -0.384,-0.465 -0.319,-1.168 -0.687,-1.641 0.203,-0.648 0.793,-0.566 1.054,-1.105 -1.113,-2.387 -4.358,-3.643 -4.691,-6.444 -0.657,0.25 -1.476,0.204 -1.742,-0.535 0.483,-0.065 1.964,-1.326 1.943,-0.118 -0.218,-0.067 -0.435,-0.133 -0.653,-0.201 -0.181,0.361 0.61,1.024 0.653,0.201 0.513,0.524 0.589,1.388 1.541,1.188 0.049,0.46 0.118,0.909 0.034,1.44 1.089,-0.284 0.807,0.629 1.607,0.97 -0.022,0.073 -0.044,0.145 -0.066,0.218 0.26,0.034 0.187,-0.181 0.066,-0.218 0.251,-0.497 -0.252,-0.595 0.117,-1.155 0.46,0.303 0.36,0.903 0.821,1.205 0.595,-1.287 -0.425,-1.719 -0.069,-2.88 0.582,0.028 0.868,0.209 1.356,-0.536 -0.726,-0.568 -0.601,0.47 -1.221,0.101 -0.025,-0.743 0.24,-1.245 -0.336,-2.009 -0.563,-0.243 0.319,1.022 -0.636,0.52 -0.247,-0.998 0.438,-1.356 -0.052,-2.16 -0.694,-0.012 -0.085,0.741 -0.334,1.088 -0.649,-0.567 -1.097,-1.241 -0.704,-2.36 -0.481,0.162 -1.04,-0.533 -1.808,-0.317 0.218,-1.818 -2.951,-1.838 -1.827,-4.135 -1.246,0.178 -2.579,2.005 -2.661,3.233 -0.723,-0.456 0.769,-2.798 0.048,-4.035 0.467,0.078 0.454,-0.748 0.921,-0.67 -0.517,-1.352 -2.932,-1.114 -2.597,-3.18 -1.003,0.006 -0.218,0.715 -0.401,1.306 -0.493,-0.286 -1.062,-0.53 -0.821,-1.205 -1.469,0.278 -1.143,-0.479 -2.545,-1.02 0.659,1.342 -4.525,-1.13 -4.236,0.605 -0.239,0.465 -1.24,-0.507 -1.138,0.603 -2.226,0.129 -6.594,-0.727 -3.92,-4.3 0.068,-0.219 -0.097,-0.313 -0.084,-0.503 -2.339,-0.058 -4.128,0.923 -6.311,1.158 -0.15,0.864 -0.489,1.371 -0.97,1.608 -0.528,-0.328 -0.156,-1.132 -0.754,-1.422 0.584,-0.752 1.722,-2.152 0.651,-2.897 0.86,-0.138 0.908,-1.047 1.188,-1.541 0.309,-0.105 0.672,-0.108 1.155,0.117 -0.068,-0.739 0.285,-0.975 0.385,-2.027 0.812,-0.123 0.826,1.486 1.306,0.402 0.731,0.005 1.137,-0.604 1.706,-0.905 -0.434,-0.559 -1.135,-0.085 -1.39,-0.904 -0.481,0.467 -0.846,1.153 -1.706,0.905 -0.259,-1.017 -0.215,-2.194 -1.86,-2.477 -0.037,-0.357 -0.27,-0.059 0,0 -0.121,0.28 0.483,1.036 -0.05,0.938 -1.243,-0.069 -0.725,-1.074 -1.474,-1.406 -0.919,-0.129 -1.768,-0.126 -1.992,1.056 -0.223,-0.307 -0.547,-0.562 -0.67,-0.92 -0.734,0.22 -1.386,0.593 -2.294,0.487 -0.174,0.396 0.098,0.555 -0.049,0.937 -0.756,-1.019 -0.677,-0.333 -0.703,0.737 -0.538,0.301 -0.818,-0.178 -1.306,-0.401 -0.611,1.276 -2.89,1.701 -3.581,3.902 -1.161,-0.647 -2.573,-0.61 -3.617,-0.634 0.074,-0.889 -0.046,-1.677 -0.771,-2.142 0.3,-2.551 1.743,-4.014 1.588,-5.945 0.449,-0.839 0.861,0.389 1.439,-0.034 0.555,-0.902 -1.144,-0.609 -0.469,-1.574 -1.097,0.452 -1.774,1.696 -2.527,2.798 -0.648,-0.203 -0.566,-0.794 -1.106,-1.055 -0.461,0.873 0.201,1.73 -1.053,1.106 -0.186,0.463 -0.035,0.747 0.452,0.853 0.815,0.621 0.324,-1.223 1.138,-0.603 -0.124,2.203 -1.336,5.112 -2.055,7.468 -0.274,0.896 0.055,2.375 -1.238,2.479 -0.205,-0.666 0.651,-1.17 -0.47,-1.574 0.457,-1.499 1.542,-3.416 1.622,-4.504 -1.153,-0.886 -1.322,-1.323 -1.509,-2.846 0.754,0.637 1.32,1.653 2.328,0.953 -0.471,-0.721 -1.218,-1.297 -1.491,-2.125 -0.757,-0.283 -0.743,0.889 -1.573,0.47 0.133,-0.437 0.267,-0.871 0.401,-1.306 -0.489,-0.121 -2.407,-0.021 -2.65,0.323 0.842,-0.501 1.773,1.2 2.634,2.054 -1.337,0.067 -0.133,0.542 -0.183,1.373 -4.062,-1.17 -7.069,-2.849 -10.113,-1.2 -1.349,-0.607 -2.132,-0.282 -2.746,-0.367 0.154,1.072 -0.203,2.416 0.722,3.08 -0.046,0.945 -0.637,0.863 -1.055,1.105 -1.23,-0.077 -1.151,-0.848 -2.043,-1.104 -0.997,0.267 0.259,1.346 -0.468,1.523 -1.103,-0.562 -0.578,-2.568 -0.437,-3.23 0.643,0.024 0.306,0.567 0.737,0.703 0.716,0.089 0.722,-1.16 1.188,-1.541 -1.071,-0.302 -1.427,0.745 -2.511,0.42 -0.06,0.729 -0.298,0.882 -0.116,1.155 -0.748,0.016 -1.244,-0.235 -2.009,0.336 -0.086,0.531 0.884,0.503 0.888,0.987 -0.686,1.114 -2.173,0.715 -3.365,0.872 0.467,0.524 2.16,0.421 3.265,1.003 -3.298,1.596 -9.859,3.36 -10.912,7.607 -0.163,0.656 -0.673,2.149 0.353,2.729 1.08,-0.168 1.152,-1.529 1.606,-2.127 0.659,-0.296 1.378,0.481 1.892,0.819 -0.7,0.971 -1.929,0.945 -2.543,2.077 -0.021,0.862 0.855,1.248 1.055,1.992 -0.313,0.386 -1.105,-0.49 -1.457,-0.686 -0.621,0.011 0.126,1.084 -0.618,1.24 -0.465,-0.643 -1.022,-1.06 -1.19,-1.557 -2.826,-8.329 7.681,-11.83 10.623,-16.748 0.244,-0.089 0.693,-0.047 1.004,-0.167 3.688,-1.417 3.112,-2.971 -0.119,-5.04 -0.767,-0.414 -0.73,0.686 -1.356,0.537 -1.118,-0.197 -1.242,-0.921 -1.977,-1.322 -0.218,-0.067 -0.313,0.097 -0.502,0.084 -0.526,1.008 0.658,1.11 0.336,2.009 -1.499,-0.056 -0.63,-1.367 -1.056,-1.992 2.708,-2.224 7.035,1.558 8.507,3.328 7.35,-1.261 13.912,-4.011 22.098,-3.695 -0.369,0.562 0.134,0.659 -0.117,1.156 3.949,-1.277 8.688,2.948 12.055,1.081 3.792,-0.083 6.319,2.97 9.395,4.315 2.635,1.153 5.581,1.023 6.765,2.793 3.768,-1.258 6.893,-3.728 11.065,-4.225 -3.428,1.557 -7.119,2.615 -10.11,4.995 0.677,1.645 2.14,2.875 3.2,4.318 6.174,0.838 5.747,6.643 10.937,8.6 -0.423,0.67 -0.438,-0.017 -1.155,-0.117 0.384,1.618 1.374,2.916 3.116,3.816 1.44,4.096 3.088,8.082 3.472,12.739 4.899,1.301 9.404,5.183 13.681,5.87 5.543,0.889 5.997,-3.655 8.97,-7.489 1.224,-0.213 3.275,1.136 4.488,0.902 0.368,-0.62 -0.47,-0.601 -0.102,-1.222 0.618,0.402 1.449,0.69 1.19,1.557 -1.127,0.738 -2.985,0.099 -4.839,-0.534 -2.078,0.181 -2.132,3.473 -2.844,4.606 -4.072,6.478 -12.784,0.241 -19.79,-2.267 -0.218,-0.068 -0.314,0.096 -0.503,0.083 -1.167,4.12 0.37,7.23 -1.534,11.202 2.966,0.602 7.609,1.31 6.996,-2.615 2.551,3.737 -3.319,4.426 -5.505,4.74 -0.345,-0.478 -0.665,0.056 -1.379,-0.055 m -46.274,-44.12 c 0.098,0.186 -0.063,-0.12 0,0 z m 36.605,12.672 c 0.098,0.186 -0.063,-0.119 0,0 z m -2.027,-0.385 c -0.012,0.939 0.516,-0.782 0,0 z m -66.438,-10.162 c 0.098,0.187 -0.064,-0.119 0,0 z m 73.786,40.53 c 0.099,0.186 -0.063,-0.12 0,0 z m -10.96,11.641 c 0.099,0.187 -0.063,-0.119 0,0 z"
             stroke-miterlimit="10"
             clip-path="url(#SVGID_2_)" />
          <path
             inkscape:connector-curvature="0"
             style="fill:#6dd300;fill-opacity:1;stroke:#008000;stroke-width:1.23715;stroke-miterlimit:4;stroke-dasharray:none;stroke-opacity:1"
             id="path5489"
             d="m 145.333,120.512 c -0.357,0.037 -0.059,0.27 0,0 0.218,0.067 0.436,0.134 0.653,0.2 -0.791,0.636 -0.747,0.951 -1.405,1.475 -0.741,-0.081 -0.058,-0.875 -0.804,-0.486 -0.232,1.232 -2.076,1.298 -2.594,3.016 0.597,-0.202 1.358,-1.313 1.858,-0.621 -0.728,0.604 -0.894,1.316 -0.668,2.177 3.312,0.471 6.593,1.022 8.891,1.302 0.036,0.357 0.269,0.058 0,0 -0.727,-0.648 -0.629,-1.733 -1.14,-2.495 0.436,-0.438 1.39,0.101 1.64,-0.687 0.765,0.931 0.453,2.433 0.521,3.734 -3.577,0.921 -0.799,4.724 -1.503,6.446 -0.903,2.204 -3.326,0.611 -4.771,2.346 -0.582,1.159 1.488,0.913 1.056,1.992 -0.911,0.305 -1.371,-0.89 -1.976,-1.322 -1.537,1.366 -0.963,3.943 0.404,4.889 -0.997,-0.048 -1.914,0.055 -2.578,0.638 -1.569,-0.445 -0.251,-2.419 -2.01,-2.762 1.029,0.016 1.621,-1.464 1.655,-3.065 -1.561,-0.244 -1.093,1.437 -2.041,1.994 -0.526,-0.086 -0.825,-0.292 -1.021,-0.552 0.888,-1.992 2.559,-2.506 3.798,-3.836 -2.522,-1.769 -3.437,-5.337 -2.432,-8.37 -1.154,-3.209 1.968,-7.48 5.019,-7.034 -0.456,0.607 -0.114,0.594 -0.552,1.021 z"
             stroke-miterlimit="10"
             clip-path="url(#SVGID_2_)" />
          <path
             inkscape:connector-curvature="0"
             style="fill:#6dd300;fill-opacity:1;stroke:#008000;stroke-width:1.23715;stroke-miterlimit:4;stroke-dasharray:none;stroke-opacity:1"
             id="path5491"
             d="m 119.925,133.433 c -0.357,0.037 -0.059,0.27 0,0 1.106,0.482 1.919,0.414 2.896,0.652 -0.872,1.562 -3.917,-0.974 -4.888,0.404 -0.435,0.899 0.83,0.896 1.541,1.188 -0.402,0.731 -1.229,0.662 -2.227,0.269 -0.052,0.757 0.506,1.19 1.474,1.405 -1.364,1.261 -3.377,-1.027 -3.082,-2.375 -2.094,-0.834 -3.415,-2.078 -4.12,-3.648 -1.045,0.105 -1.395,0.411 -2.528,-0.3 -0.641,0.166 -0.805,1.233 -1.707,0.905 -0.264,-0.71 0.581,-2.009 0.367,-2.746 0.633,0.211 0.222,0.975 1.105,1.054 0.263,-1.594 2.028,-1.915 1.99,-4.153 0.594,0.961 0.381,2.349 0.304,3.666 1.76,1.254 2.125,3.248 4.421,4.217 0.859,-0.35 -0.224,-1.205 0.385,-2.026 -0.261,-0.53 -1.595,-0.491 -1.257,-1.338 1.704,0.921 2.161,-0.507 2.996,-1.224 -0.62,-1.074 -0.466,-2.959 1.003,-3.265 -1.649,-6.632 5.372,-15.307 9.941,-9.097 4.823,1.786 2.687,7.516 1.344,11.133 -1.299,0.185 -1.31,2.799 -2.744,2.731 -0.127,1.021 -0.691,1.217 -0.886,2.11 -2.352,-1.381 -4.675,-0.557 -6.328,0.438 z"
             stroke-miterlimit="10"
             clip-path="url(#SVGID_2_)" />
          <path
             inkscape:connector-curvature="0"
             style="fill:#6dd300;fill-opacity:1;stroke:#008000;stroke-width:1.23715;stroke-miterlimit:4;stroke-dasharray:none;stroke-opacity:1"
             id="path5493"
             d="m 161.184,144.914 c -0.884,-1.551 -5.314,-2.977 -6.078,-1.151 -0.551,1.315 1.042,1.146 0.855,2.644 -1.562,-0.205 -1.7,-1.164 -2.278,-1.891 -0.56,1.452 -0.03,2.325 1.006,2.93 -1.607,0.803 -2.409,-1.593 -2.362,-2.393 0.181,-3.109 3.996,-6.247 5.002,-7.754 -0.617,-5.522 3.908,-9.645 8.921,-6.552 0.297,-0.012 0.532,-0.14 0.636,-0.518 3.748,0.807 3.266,3.857 2.046,7.298 -1.491,1.543 -3.551,2.012 -4.351,4.858 -1.252,0.616 -2.216,1.778 -3.397,2.529 z m 5.803,-13.463 c 0.099,0.187 -0.063,-0.119 0,0 z"
             stroke-miterlimit="10"
             clip-path="url(#SVGID_2_)" />
          <path
             inkscape:connector-curvature="0"
             style="fill:#6dd300;fill-opacity:1;stroke:#008000;stroke-width:1.23715;stroke-miterlimit:4;stroke-dasharray:none;stroke-opacity:1"
             id="path5495"
             d="m 128.817,138.07 c 2.025,-0.483 4.495,-0.095 6.848,0.198 -1.901,0.563 -3.728,1.034 -6.848,-0.198 z"
             stroke-miterlimit="10"
             clip-path="url(#SVGID_2_)" />
          <path
             inkscape:connector-curvature="0"
             style="fill:#6dd300;fill-opacity:1;stroke:#008000;stroke-width:1.23715;stroke-miterlimit:4;stroke-dasharray:none;stroke-opacity:1"
             id="path5497"
             d="m 165.41,148.605 c -0.568,0.646 -1.845,0.614 -1.841,1.34 1.81,0.637 4.521,1.66 3.853,4.519 1.921,0.987 4.076,1.849 4.907,3.412 -2.269,-1.165 -5.06,-2.508 -7.235,-4.366 -0.124,-4.465 -3.563,-0.084 -5.135,-4.22 0.145,-0.299 0.78,-0.059 0.894,-0.417 1.138,2.61 0.577,1.565 2.682,-0.367 0.91,0.57 1.037,-0.336 1.875,0.099 z"
             stroke-miterlimit="10"
             clip-path="url(#SVGID_2_)" />
          <path
             inkscape:connector-curvature="0"
             style="fill:#6dd300;fill-opacity:1;stroke:#008000;stroke-width:1.23715;stroke-miterlimit:4;stroke-dasharray:none;stroke-opacity:1"
             id="path5499"
             d="m 117.368,140.985 c -0.246,0.568 -1.036,0.109 -1.356,0.536 0.488,0.786 1.85,0.297 2.377,0.016 0.605,0.482 -0.153,0.646 0.319,1.289 1.175,0.382 2.388,0.837 2.88,-0.068 0.573,-0.851 -0.954,-0.588 -0.537,-1.356 0.586,-0.133 1.727,0.701 2.261,1.171 -0.616,2.141 -1.479,4.705 -3.48,5.124 -1.139,-0.828 -3.03,-2.189 -3.834,-0.701 -0.759,-0.266 -0.782,-0.922 -1.541,-1.188 -2.462,-0.343 -3.646,3.293 -1.338,4.354 -3.76,0.813 -2.585,-6.24 0.499,-6.279 0.169,-0.943 0.575,-1.437 1.038,-1.825 -0.095,-0.618 -0.484,-1.08 -0.972,-1.49 0.492,-1.415 0.346,-2.492 0.986,-3.985 0.739,0.264 0.349,1.729 -0.166,2.093 0.526,0.632 1.473,1.041 0.989,2.209 0.702,0.18 1.109,-0.199 1.875,0.1 z"
             stroke-miterlimit="10"
             clip-path="url(#SVGID_2_)" />
          <path
             inkscape:connector-curvature="0"
             style="fill:#6dd300;fill-opacity:1;stroke:#008000;stroke-width:1.23715;stroke-miterlimit:4;stroke-dasharray:none;stroke-opacity:1"
             id="path5501"
             d="m 144.175,147.551 c 1.638,0.979 0.784,4.389 -0.733,5.492 -2.349,-1.245 -5.23,-0.763 -6.68,0.807 0.029,0.774 0.42,1.356 1.122,1.774 -0.471,0.412 -1.253,-0.536 -1.675,-0.753 -1.077,1.069 0.113,1.991 0.571,2.796 -2.681,-0.415 -1.668,-5.763 0.181,-7.568 0.166,-1.281 -1.686,-2.333 -0.588,-3.515 0.712,0.108 0.914,0.488 0.603,1.138 0.832,0.194 1.392,-0.125 2.009,-0.336 1.318,1.308 4.394,1.915 5.19,0.165 z"
             stroke-miterlimit="10"
             clip-path="url(#SVGID_2_)" />
          <path
             inkscape:connector-curvature="0"
             style="fill:#6dd300;fill-opacity:1;stroke:#008000;stroke-width:1.23715;stroke-miterlimit:4;stroke-dasharray:none;stroke-opacity:1"
             id="path5503"
             d="m 152.549,154.412 c 0.434,0.129 0.459,-0.509 1.004,-0.168 -0.441,1.05 -0.353,1.31 -0.819,1.892 1.137,0.081 3.023,1.579 3.466,0.35 0.357,-0.014 0.647,-0.154 1.005,-0.168 0.25,-0.497 -0.253,-0.595 0.116,-1.156 0.974,0.153 0.67,0.982 1.541,1.189 0.589,-0.149 0.547,-1.491 0.886,-2.11 0.568,0.034 0.98,0.123 2.027,0.383 0.354,-0.734 -0.607,-0.772 -0.252,-1.506 0.665,0.194 0.705,0.72 1.105,1.054 -2.853,1.128 -2.849,5.585 -5.371,7.403 -2.103,-2.061 -5.087,-1.331 -7.367,-0.833 0.008,0.42 -0.655,1.198 -0.183,1.373 -0.419,0.601 -0.504,-0.429 -0.804,-0.486 -1.229,1.086 0.039,2.238 0.219,3.164 -3.676,-1.586 0.395,-5.348 0.75,-7.869 0.703,-0.164 1.323,-0.482 2.076,-0.553 0.09,-0.535 -0.632,-0.637 -0.319,-1.289 0.659,0.441 0.807,-0.083 0.92,-0.67 z"
             stroke-miterlimit="10"
             clip-path="url(#SVGID_2_)" />
          <path
             id="path5505"
             style="fill:#6dd300;fill-opacity:1;stroke:#008000;stroke-width:1.23715;stroke-miterlimit:4;stroke-dasharray:none;stroke-opacity:1"
             d="M 152.02349,76.557999 C 118.045,76.558 90.5,104.104 90.5,138.08299 H 83.525501 C 83.526,100.253 114.194,69.585 152.02349,69.585 Z"
             inkscape:connector-curvature="0"
             sodipodi:nodetypes="ccccc" />
          <path
             id="path5507"
             style="fill:#6dd300;fill-opacity:1;stroke:#008000;stroke-width:1.23715;stroke-miterlimit:4;stroke-dasharray:none;stroke-opacity:1"
             d="m 128.78,92.888 c 25.667,-12.983 57.001,-2.702 69.985,22.966 l 5.268,-2.665 C 189.577,84.612 154.693,73.165 126.1155,87.621001 Z"
             inkscape:connector-curvature="0"
             sodipodi:nodetypes="ccccc" />
          <path
             id="path5509"
             style="fill:#6dd300;fill-opacity:1;stroke:#008000;stroke-width:1.23715;stroke-miterlimit:4;stroke-dasharray:none;stroke-opacity:1"
             d="M 207.85201,173.97301 C 188.613,204.927 147.923,214.423 116.97,195.183 l -3.9495,6.3525 c 34.4625,21.4195 79.7635,10.8465 101.184,-23.61499 z"
             inkscape:connector-curvature="0"
             sodipodi:nodetypes="ccccc" />
          <path
             id="path5511"
             style="fill:#6dd300;fill-opacity:1;stroke:#008000;stroke-width:1.23715;stroke-miterlimit:4;stroke-dasharray:none;stroke-opacity:1"
             d="m 156.133,198.8915 c 18.455,-0.8305 34.47,-10.3265 44.294,-24.3815 l -4.918,-3.119 c -8.837,12.508 -23.154,20.947 -39.6375,21.6885 z"
             inkscape:connector-curvature="0"
             sodipodi:nodetypes="ccccc" />
        </g>
        <text
           inkscape:transform-center-y="-80.023378"
           inkscape:transform-center-x="-89.285836"
           transform="matrix(0.08905325,-0.31743407,0.31743407,0.08905325,-565.60114,1469.648)"
           xml:space="preserve"
           style="font-style:normal;font-weight:bold;font-size:24px;line-height:0%;font-family:sans-serif;-inkscape-font-specification:'Sans Bold';letter-spacing:0px;word-spacing:0px;fill:#6dd300;fill-opacity:1;stroke:#008000;stroke-width:3.44054;stroke-miterlimit:4;stroke-dasharray:none;stroke-opacity:1"
           id="text3628"><textPath
             style="font-size:54.5969px;font-family:sans-serif;fill:#6dd300;fill-opacity:1;stroke:#008000;stroke-width:3.44054;stroke-miterlimit:4;stroke-dasharray:none;stroke-opacity:1"
             id="textPath3630"
             xlink:href="#path4127-3">HACKTERIA.ORG</textPath></text>
      </g>
      <path
         style="fill:#6dd300;fill-opacity:1;stroke:#008000;stroke-width:0.213857;stroke-miterlimit:4;stroke-dasharray:none;stroke-opacity:1"
         d="m 63.597612,98.837453 c -0.97851,-1.391609 -2.69971,-2.44601 -3.69447,-2.26322 -1.15928,0.213021 -2.5431,1.177148 -3.54015,2.466477 -0.27493,0.355519 -0.43216,0.442046 -0.6854,0.377182 -0.18074,-0.0463 -0.32862,-0.154755 -0.32862,-0.24102 0,-0.236236 1.55903,-1.622012 2.60388,-2.314506 0.88363,-0.585641 0.90621,-0.615155 0.53961,-0.705278 -0.62858,-0.154526 -1.3741,0.04565 -3.07038,0.824397 l -1.60855,0.738475 -1.46231,-0.01279 c -0.9982,-0.0087 -1.69153,-0.093 -2.18453,-0.265515 -0.720384,-0.252095 -2.631467,-1.354446 -2.52645,-1.457308 0.03045,-0.02982 0.543535,0.11503 1.140199,0.321894 1.592141,0.551999 3.576261,0.55144 5.106211,-0.0014 2.40644,-0.869617 3.91519,-1.02471 5.63575,-0.579342 0.73302,0.189744 1.04353,0.198926 1.95347,0.05777 0.59505,-0.09231 1.45051,-0.126163 1.90101,-0.07524 1.23759,0.139902 3.73765,0.492493 5.13293,0.723915 1.49684,0.248264 2.60387,0.12855 3.86106,-0.417536 0.47482,-0.206248 0.88939,-0.349451 0.92127,-0.31823 0.0953,0.09331 -1.99942,1.535272 -2.56863,1.768221 -0.55084,0.225435 -2.63137,0.27977 -3.65352,0.09542 -0.29387,-0.053 -1.31899,-0.347877 -2.27805,-0.655277 -1.22349,-0.392156 -1.94052,-0.546189 -2.40328,-0.516273 l -0.65953,0.04264 0.86785,0.63599 c 0.86554,0.634307 1.86353,1.592588 2.11335,2.029277 0.0992,0.173432 0.0471,0.268112 -0.21099,0.383295 -0.31465,0.140423 -0.38861,0.08776 -0.90173,-0.641982 z m 4.83909,-3.200945 c -0.40214,-0.06135 -1.22469,-0.121278 -1.8279,-0.133174 -0.82625,-0.01629 -1.01435,-0.05402 -0.76269,-0.152984 0.64748,-0.25461 1.49357,-1.048665 1.81047,-1.699122 0.18348,-0.376602 0.90382,-1.231456 1.68466,-1.999246 l 1.36414,-1.341326 -0.3652,0.768397 c -0.20086,0.422619 -0.3662,0.865079 -0.36744,0.983246 -0.006,0.528797 -0.33727,1.303248 -0.8053,1.87993 -0.2797,0.344647 -0.5092,0.684055 -0.50998,0.754243 -7.4e-4,0.07076 0.53601,0.09247 1.205,0.04873 1.22634,-0.08018 2.43196,-0.444513 3.92777,-1.186948 l 0.72871,-0.361693 -0.22091,0.418429 c -0.42806,0.810792 -1.52932,1.514743 -3.03232,1.938328 -0.87073,0.245395 -1.62114,0.267459 -2.82901,0.08319 z m -19.46878,-0.120435 c -0.855233,-0.21744 -2.361259,-1.15717 -3.040631,-1.897296 -0.372024,-0.405292 -0.647899,-0.764818 -0.613056,-0.798946 0.03484,-0.03413 0.34225,0.110398 0.683128,0.321172 1.090702,0.674405 3.646849,1.355466 5.089479,1.356043 l 0.4904,1.87e-4 -0.44769,-0.499431 c -0.24623,-0.274688 -0.51986,-0.774209 -0.60807,-1.110048 -0.33494,-1.2752 -0.78122,-2.487341 -1.058419,-2.874767 -0.450413,-0.629505 -0.165518,-0.640148 0.488599,-0.01825 0.69249,0.658372 1.66257,2.052169 2.31195,3.321773 0.48975,0.957512 1.32976,1.693964 2.13485,1.871669 0.33532,0.07401 0.16302,0.119764 -0.73116,0.194143 -2.32292,0.193224 -4.249752,0.248063 -4.69938,0.133745 z m 21.44254,-1.927142 c 0.35261,-0.611974 0.50433,-1.098656 0.59826,-1.919076 0.0967,-0.844479 0.26934,-1.3827 0.7451,-2.322802 0.34059,-0.672998 0.76485,-1.610359 0.9428,-2.083024 l 0.32354,-0.859392 0.0114,1.436912 c 0.0105,1.323355 -0.0856,1.905561 -0.55138,3.338459 -0.1984,0.610376 -0.14164,0.590142 1.70429,-0.6076 1.49875,-0.972466 2.19982,-1.557982 2.84654,-2.377372 0.37894,-0.480106 0.39574,-0.486445 0.3973,-0.149837 0.003,0.613869 -1.28397,2.996135 -1.97237,3.651455 -0.7722,0.735093 -2.25874,1.508886 -3.71405,1.933281 -0.59496,0.173502 -1.24422,0.419732 -1.44281,0.547177 -0.34986,0.224535 -0.3464,0.206294 0.11136,-0.588181 z m -20.78618,-0.306493 c -0.0387,-0.03792 -0.591391,-0.16659 -1.228171,-0.285926 -2.534142,-0.474916 -4.55087,-1.992232 -5.307205,-3.992956 -0.56443,-1.493084 -0.553046,-1.502497 0.503539,-0.416309 0.554674,0.570216 1.409417,1.279214 1.899427,1.575552 0.490012,0.296338 1.165842,0.725478 1.501848,0.953645 0.336003,0.228165 0.64881,0.377731 0.695125,0.332367 0.04631,-0.04537 -0.02219,-0.540662 -0.152222,-1.100662 -0.15696,-0.675944 -0.223127,-1.521777 -0.196854,-2.516424 0.02177,-0.824035 0.05508,-1.498348 0.07403,-1.498475 0.01895,-1.87e-4 0.242023,0.402533 0.495721,0.894796 0.347269,0.673823 0.529496,1.332044 0.737325,2.663293 0.26257,1.681896 0.59052,2.628485 1.111907,3.20939 0.1915,0.213363 0.0681,0.380117 -0.13447,0.181709 z m -3.491947,-3.803311 c -0.262895,-0.325124 -0.747909,-0.757047 -1.077808,-0.959829 -1.285231,-0.79001 -2.120293,-1.62368 -2.63416,-2.629767 -0.451341,-0.88367 -0.827783,-2.458499 -0.633225,-2.649066 0.0402,-0.03937 0.273751,0.276682 0.51901,0.702342 0.421764,0.731994 2.708732,3.249606 2.951903,3.249606 0.0624,0 0.159087,-0.370613 0.214851,-0.823584 0.05576,-0.45297 0.227855,-1.303016 0.382428,-1.888991 0.154573,-0.585974 0.281041,-1.259521 0.281041,-1.496773 0,-0.988592 0.481203,0.372605 0.667129,1.887127 0.0599,0.487983 0.0015,1.233314 -0.164462,2.095984 -0.214913,1.117647 -0.229376,1.475507 -0.08758,2.167056 0.09341,0.455586 0.14487,0.852793 0.114353,0.882684 -0.03052,0.02989 -0.270579,-0.211664 -0.533476,-0.536789 z m 27.566037,0.363078 c 0.24257,-0.697907 0.25309,-2.330455 0.0214,-3.328087 -0.28219,-1.215251 -0.29341,-2.117088 -0.0396,-3.182323 0.19626,-0.823673 0.28494,-0.824958 0.45811,-0.0066 0.0584,0.275722 0.22702,0.696618 0.37483,0.935327 0.14781,0.238709 0.34172,0.881395 0.4309,1.428193 0.0892,0.546798 0.19868,1.028263 0.24332,1.06992 0.13812,0.128867 2.23473,-2.165839 2.77542,-3.037646 0.28158,-0.45402 0.54858,-0.825491 0.59333,-0.825491 0.16976,0 -0.13013,1.488824 -0.49309,2.447958 -0.44102,1.165393 -1.28889,2.166603 -2.53887,2.998034 -0.46075,0.306475 -1.08245,0.833975 -1.38154,1.172224 -0.2991,0.338249 -0.49901,0.48609 -0.44424,0.328534 z M 44.381595,85.37291 c -0.201068,-0.29065 -0.650844,-0.854186 -0.999504,-1.252299 -1.193172,-1.362417 -1.749734,-2.953458 -1.582234,-4.523128 0.140888,-1.3203 0.319885,-1.491913 0.501686,-0.480991 0.157797,0.877454 1.240939,3.672378 1.449301,3.739758 0.06542,0.02115 0.31604,-0.331982 0.556941,-0.78475 0.240901,-0.452767 0.660992,-1.145485 0.933537,-1.539372 0.272544,-0.393889 0.650587,-1.038431 0.840098,-1.432319 0.288478,-0.599594 0.344794,-0.6541 0.34599,-0.334873 0.0031,0.822368 -0.434241,2.535248 -0.908302,3.557591 -0.662877,1.429537 -0.899926,2.315414 -0.805021,3.008461 0.04311,0.314786 0.06818,0.571898 0.05573,0.571359 -0.01246,-5.59e-4 -0.187153,-0.238785 -0.388222,-0.529437 z m 31.433387,-0.545946 c -0.008,-0.746106 -0.24334,-1.359687 -0.97347,-2.542238 -0.34051,-0.551517 -0.70672,-1.40273 -0.85021,-1.976221 -0.26158,-1.04553 -0.22538,-1.400949 0.0849,-0.833143 0.0987,0.18066 0.48731,0.717928 0.86354,1.193932 0.37623,0.476002 0.8326,1.107162 1.01415,1.402576 0.18155,0.295418 0.37408,0.536322 0.42784,0.535345 0.17985,-0.0033 1.34149,-2.353341 1.48591,-3.006096 0.0784,-0.354499 0.1841,-0.837907 0.23481,-1.07424 0.0824,-0.383906 0.10491,-0.399168 0.2114,-0.14323 0.21622,0.519637 0.14491,2.131716 -0.137,3.097314 -0.30834,1.056089 -0.57625,1.535611 -1.27039,2.273884 -0.25924,0.275721 -0.60943,0.758175 -0.77819,1.072117 l -0.30684,0.570807 -0.006,-0.570807 z m -32.604955,-5.11963 c -0.580541,-1.404007 -0.653816,-1.704384 -0.634579,-2.601344 0.02309,-1.076599 0.249232,-1.851509 0.777412,-2.663896 l 0.32419,-0.498635 -0.08234,0.644543 c -0.09755,0.763614 0.178534,3.736068 0.365209,3.932071 0.07972,0.0837 0.403276,-0.137721 0.83721,-0.572928 0.389002,-0.390144 1.078072,-1.052411 1.531267,-1.471703 l 0.823991,-0.762354 -0.198046,0.644554 c -0.216476,0.70454 -0.51661,1.16548 -1.582313,2.430071 -0.731986,0.868596 -1.282899,1.796139 -1.282899,2.159951 0,0.596308 -0.287262,0.191011 -0.879105,-1.24033 z m 32.632725,0.552248 c -0.15664,-0.34684 -0.7187,-1.057715 -1.24901,-1.579716 -0.95014,-0.935244 -1.41572,-1.633939 -1.60635,-2.410653 -0.0858,-0.349651 0.0673,-0.260299 1.31659,0.768572 1.57224,1.294787 1.49784,1.29905 1.86964,-0.107132 0.29141,-1.102096 0.29678,-2.233451 0.0149,-3.14347 -0.25833,-0.834085 -0.25083,-0.774732 -0.0979,-0.774732 0.0676,0 0.29992,0.318408 0.51617,0.707576 1.01081,1.819103 1.08313,3.280882 0.27701,5.599396 -0.30037,0.863932 -0.59341,1.570785 -0.6512,1.570785 -0.0578,0 -0.23321,-0.283782 -0.38985,-0.630626 z m -31.426614,-3.41317 c -0.0081,-0.41496 -0.03261,-1.431246 -0.05446,-2.25841 -0.03641,-1.378399 -0.0073,-1.569691 0.349045,-2.291711 0.38012,-0.770252 1.759674,-2.434942 2.017869,-2.434942 0.07157,0 -0.03402,0.236923 -0.234644,0.526496 -0.448765,0.647725 -0.892511,2.111246 -1.002078,3.304958 -0.06785,0.739169 -0.0436,0.895199 0.139108,0.895199 0.43584,0 1.928605,-0.84956 2.382522,-1.355937 0.580061,-0.647103 0.593069,-0.37553 0.02822,0.589118 -0.420605,0.718301 -1.002035,1.27421 -2.343198,2.240343 -0.361463,0.260386 -0.794554,0.713264 -0.962425,1.006395 l -0.30522,0.532967 z m 30.373344,-0.396394 c -0.28606,-0.275722 -0.98271,-0.920266 -1.54811,-1.43232 -1.1024,-0.998375 -1.71433,-1.817296 -1.87303,-2.506559 -0.0953,-0.413717 -0.0821,-0.407474 0.35345,0.167898 0.45338,0.598902 1.67235,1.488074 2.42349,1.7678 l 0.40073,0.149232 -0.076,-0.92732 c -0.0853,-1.041323 -0.74532,-2.596098 -1.40338,-3.306089 -0.21905,-0.236332 -0.52785,-0.585464 -0.68621,-0.775847 l -0.28794,-0.346152 0.45173,0.255999 c 1.19624,0.67792 2.53871,2.287585 2.85362,3.42159 0.17445,0.628189 0.1809,2.494375 0.012,3.460151 l -0.10022,0.572928 z M 46.352388,72.87882 c 0.379425,-1.09267 0.945266,-1.979829 1.707596,-2.677266 0.626452,-0.573127 1.760068,-1.363254 1.841488,-1.283508 0.0344,0.03373 -0.2535,0.662606 -0.639858,1.39751 -0.67762,1.288934 -1.685978,2.445984 -2.862307,3.284384 l -0.39511,0.281608 z m 26.803854,0.447759 c -0.8852,-0.685293 -1.28303,-1.179022 -1.86887,-2.319375 -0.26307,-0.512055 -0.73321,-1.214901 -1.04477,-1.561881 -0.31156,-0.346979 -0.53915,-0.657634 -0.50576,-0.690343 0.0334,-0.03271 0.34193,0.08105 0.68564,0.252801 0.80669,0.4031 2.10914,1.612088 2.57434,2.38961 0.3226,0.539178 0.97231,2.331216 0.87851,2.423094 -0.0197,0.01929 -0.34328,-0.20297 -0.71909,-0.493906 z"
         id="path2998"
         inkscape:connector-curvature="0"
         sodipodi:nodetypes="sssssssscsssssssssscsssscssssssssscssscsscssscsssccssssssscccssscsssssssscccsssssssssssscsssssssssscscscsssssssssssccsssscsssssscscssssscsssssscccssscsssscsssssssssssssssssssssssssscsssssscssscssscsssssscsssssssss" />
    </g>
  </g>
</svg>
